<svg height="2190" width="720" xmlns="http://www.w3.org/2000/svg">
<rect height="2190" fill="#555" width="720"></rect>
<text fill="#7f7" font-family="Courier New" font-size="12" xml:space="preserve">
<tspan x="10" y="26"></tspan>
<tspan x="10" y="42">&gt; npmdoc-svg2ttf@0.0.1 test /home/travis/build/npmdoc/node-npmdoc-svg2ttf</tspan>
<tspan x="10" y="58">&gt; (set -e; export PORT=$(utility2 shServerPortRandom); utility2 test test.js)</tspan>
<tspan x="10" y="74"></tspan>
<tspan x="10" y="90"></tspan>
<tspan x="10" y="106">[MODE_BUILD=npmTest] - 2017-04-07T13:16:21Z - npm-testing /home/travis/build/npmdoc/node-npmdoc-\</tspan>
<tspan x="10" y="122">svg2ttf</tspan>
<tspan x="10" y="138"></tspan>
<tspan x="10" y="154"></tspan>
<tspan x="10" y="170">covering $ /home/travis/.nvm/versions/node/v6.10.2/bin/node /home/travis/build/npmdoc/node-npmdo\</tspan>
<tspan x="10" y="186">c-svg2ttf/test.js</tspan>
<tspan x="10" y="202">merging file:///home/travis/build/npmdoc/node-npmdoc-svg2ttf/tmp/build/test-report.json to test-\</tspan>
<tspan x="10" y="218">report</tspan>
<tspan x="10" y="234">&gt; server listening on http-port 45307</tspan>
<tspan x="10" y="250">usage: test.js [-h] [-v] [-c COPYRIGHT] [--ts TS] [--vs VS] infile outfile</tspan>
<tspan x="10" y="266">test.js: error: too few arguments</tspan>
<tspan x="10" y="282">usage: test.js [-h] [-v] [-c COPYRIGHT] [--ts TS] [--vs VS] infile outfile</tspan>
<tspan x="10" y="298">test.js: error: Argument "infile" is required</tspan>
<tspan x="10" y="314">usage: test.js [-h] [-v] [-c COPYRIGHT] [--ts TS] [--vs VS] infile outfile</tspan>
<tspan x="10" y="330">test.js: error: Argument "outfile" is required</tspan>
<tspan x="10" y="346">created apidoc file:///home/travis/build/npmdoc/node-npmdoc-svg2ttf/tmp/build/apidoc.html</tspan>
<tspan x="10" y="362"></tspan>
<tspan x="10" y="378"></tspan>
<tspan x="10" y="394">browserTest - created electron entry-page /home/travis/build/npmdoc/node-npmdoc-svg2ttf/tmp/elec\</tspan>
<tspan x="10" y="410">tron.15b488efcf30.836ae60ab4ee8.html</tspan>
<tspan x="10" y="426"></tspan>
<tspan x="10" y="442">usage: test.js [-h] [-v] [-c COPYRIGHT] [--ts TS] [--vs VS] infile outfile</tspan>
<tspan x="10" y="458">test.js: error: too few arguments</tspan>
<tspan x="10" y="474">usage: test.js [-h] [-v] [-c COPYRIGHT] [--ts TS] [--vs VS] infile outfile</tspan>
<tspan x="10" y="490">test.js: error: Argument "infile" is required</tspan>
<tspan x="10" y="506">usage: test.js [-h] [-v] [-c COPYRIGHT] [--ts TS] [--vs VS] infile outfile</tspan>
<tspan x="10" y="522">test.js: error: Argument "outfile" is required</tspan>
<tspan x="10" y="538">[node test-case 1 of 6 passed] - testCase_buildLib_default</tspan>
<tspan x="10" y="554">[node test-case 2 of 6 passed] - testCase_buildReadme_default</tspan>
<tspan x="10" y="570">[node test-case 3 of 6 passed] - testCase_buildTest_default</tspan>
<tspan x="10" y="586"></tspan>
<tspan x="10" y="602">browserTest - created electron entry-page /home/travis/build/npmdoc/node-npmdoc-svg2ttf/tmp/elec\</tspan>
<tspan x="10" y="618">tron.15b488efd1f0.dfab86acd8b33.html</tspan>
<tspan x="10" y="634"></tspan>
<tspan x="10" y="650">Xlib:  extension "RANDR" missing on display ":99.0".</tspan>
<tspan x="10" y="666">Xlib:  extension "RANDR" missing on display ":99.0".</tspan>
<tspan x="10" y="682">&gt; server listening on http-port 43394</tspan>
<tspan x="10" y="698">merging file:///home/travis/build/npmdoc/node-npmdoc-svg2ttf/tmp/build/test-report.json to test-\</tspan>
<tspan x="10" y="714">report</tspan>
<tspan x="10" y="730">Xlib:  extension "RANDR" missing on display ":99.0".</tspan>
<tspan x="10" y="746">[4909:0407/131622:WARNING:audio_manager.cc(314)] Multiple instances of AudioManager detected</tspan>
<tspan x="10" y="762">[4909:0407/131622:WARNING:audio_manager.cc(275)] Multiple instances of AudioManager detected</tspan>
<tspan x="10" y="778">merging file:///home/travis/build/npmdoc/node-npmdoc-svg2ttf/tmp/build/test-report.json to test-\</tspan>
<tspan x="10" y="794">report</tspan>
<tspan x="10" y="810">Xlib:  extension "RANDR" missing on display ":99.0".</tspan>
<tspan x="10" y="826">[4911:0407/131622:WARNING:audio_manager.cc(314)] Multiple instances of AudioManager detected</tspan>
<tspan x="10" y="842">[4911:0407/131622:WARNING:audio_manager.cc(275)] Multiple instances of AudioManager detected</tspan>
<tspan x="10" y="858">[4962:0407/131622:ERROR:sandbox_linux.cc(343)] InitializeSandbox() called with multiple threads \</tspan>
<tspan x="10" y="874">in process gpu-process. </tspan>
<tspan x="10" y="890">[4945:0407/131622:ERROR:sandbox_linux.cc(343)] InitializeSandbox() called with multiple threads \</tspan>
<tspan x="10" y="906">in process gpu-process. </tspan>
<tspan x="10" y="922">[4909:0407/131622:ERROR:browser_gpu_channel_host_factory.cc(131)] Failed to create channel.</tspan>
<tspan x="10" y="938"></tspan>
<tspan x="10" y="954">browserTest - opened url /home/travis/build/npmdoc/node-npmdoc-svg2ttf/tmp/build/apidoc.html</tspan>
<tspan x="10" y="970"></tspan>
<tspan x="10" y="986"></tspan>
<tspan x="10" y="1002">browserTest - opened url http://127.0.0.1:45307?modeTest=1</tspan>
<tspan x="10" y="1018"></tspan>
<tspan x="10" y="1034">[4911:0407/131624:INFO:CONSOLE(250)] "----------|-----------|-----------|-----------|-----------\</tspan>
<tspan x="10" y="1050">|</tspan>
<tspan x="10" y="1066">File      |   % Stmts |% Branches |   % Funcs |   % Lines |</tspan>
<tspan x="10" y="1082">----------|-----------|-----------|-----------|-----------|</tspan>
<tspan x="10" y="1098">----------|-----------|-----------|-----------|-----------|</tspan>
<tspan x="10" y="1114">All files |       100 |       100 |       100 |       100 |</tspan>
<tspan x="10" y="1130">----------|-----------|-----------|-----------|-----------|</tspan>
<tspan x="10" y="1146">", source: file:///home/travis/build/npmdoc/node-npmdoc-svg2ttf/tmp/electron.15b488efd1f0.dfab86\</tspan>
<tspan x="10" y="1162">acd8b33.html (250)</tspan>
<tspan x="10" y="1178">[4911:0407/131624:INFO:CONSOLE(250)] "created coverage file:///tmp/build/coverage.html/index.htm\</tspan>
<tspan x="10" y="1194">l", source: file:///home/travis/build/npmdoc/node-npmdoc-svg2ttf/tmp/electron.15b488efd1f0.dfab8\</tspan>
<tspan x="10" y="1210">6acd8b33.html (250)</tspan>
<tspan x="10" y="1226">[node test-case 4 of 6 passed] - testCase_buildApp_default</tspan>
<tspan x="10" y="1242"></tspan>
<tspan x="10" y="1258">browserTest - created screenCapture file:///home/travis/build/npmdoc/node-npmdoc-svg2ttf/tmp/bui\</tspan>
<tspan x="10" y="1274">ld/screenCapture.npmTest.browser._2Fhome_2Ftravis_2Fbuild_2Fnpmdoc_2Fnode-npmdoc-svg2ttf_2Ftmp_2\</tspan>
<tspan x="10" y="1290">Fbuild_2Fapidoc.html.png</tspan>
<tspan x="10" y="1306"></tspan>
<tspan x="10" y="1322">browserTest - created screenCapture file:///home/travis/build/npmdoc/node-npmdoc-svg2ttf/tmp/bui\</tspan>
<tspan x="10" y="1338">ld/screenCapture.npmTest.browser._2Fhome_2Ftravis_2Fbuild_2Fnpmdoc_2Fnode-npmdoc-svg2ttf_2Ftmp_2\</tspan>
<tspan x="10" y="1354">Fbuild_2Fapidoc.html.html</tspan>
<tspan x="10" y="1370"></tspan>
<tspan x="10" y="1386">browserTest - exit-code 0 - /home/travis/build/npmdoc/node-npmdoc-svg2ttf/tmp/build/apidoc.html</tspan>
<tspan x="10" y="1402"></tspan>
<tspan x="10" y="1418">[node test-case 5 of 6 passed] - testCase_buildApidoc_default</tspan>
<tspan x="10" y="1434"></tspan>
<tspan x="10" y="1450">browserTest - created screenCapture file:///home/travis/build/npmdoc/node-npmdoc-svg2ttf/tmp/bui\</tspan>
<tspan x="10" y="1466">ld/screenCapture.npmTest.browser..png</tspan>
<tspan x="10" y="1482"></tspan>
<tspan x="10" y="1498">browserTest - created screenCapture file:///home/travis/build/npmdoc/node-npmdoc-svg2ttf/tmp/bui\</tspan>
<tspan x="10" y="1514">ld/screenCapture.npmTest.browser..html</tspan>
<tspan x="10" y="1530"></tspan>
<tspan x="10" y="1546">browserTest - exit-code 0 - http://127.0.0.1:45307?modeTest=1</tspan>
<tspan x="10" y="1562"></tspan>
<tspan x="10" y="1578"></tspan>
<tspan x="10" y="1594">browserTest - merged coverage from /home/travis/build/npmdoc/node-npmdoc-svg2ttf/tmp/coverage.np\</tspan>
<tspan x="10" y="1610">mTest.browser.%2F.json</tspan>
<tspan x="10" y="1626"></tspan>
<tspan x="10" y="1642"></tspan>
<tspan x="10" y="1658">browserTest - merging test-report from /home/travis/build/npmdoc/node-npmdoc-svg2ttf/tmp/test-re\</tspan>
<tspan x="10" y="1674">port.npmTest.browser.%2F.json</tspan>
<tspan x="10" y="1690"></tspan>
<tspan x="10" y="1706">[node test-case 6 of 6 passed] - testCase_webpage_default</tspan>
<tspan x="10" y="1722">----------------------------|-----------|-----------|-----------|-----------|</tspan>
<tspan x="10" y="1738">File                        |   % Stmts |% Branches |   % Funcs |   % Lines |</tspan>
<tspan x="10" y="1754">----------------------------|-----------|-----------|-----------|-----------|</tspan>
<tspan x="10" y="1770">   node-npmdoc-svg2ttf/     |       100 |       100 |       100 |       100 |</tspan>
<tspan x="10" y="1786">      example.js            |       100 |       100 |       100 |       100 |</tspan>
<tspan x="10" y="1802">      lib.npmdoc_svg2ttf.js |       100 |       100 |       100 |       100 |</tspan>
<tspan x="10" y="1818">      test.js               |       100 |       100 |       100 |       100 |</tspan>
<tspan x="10" y="1834">----------------------------|-----------|-----------|-----------|-----------|</tspan>
<tspan x="10" y="1850">All files                   |       100 |       100 |       100 |       100 |</tspan>
<tspan x="10" y="1866">----------------------------|-----------|-----------|-----------|-----------|</tspan>
<tspan x="10" y="1882"></tspan>
<tspan x="10" y="1898">created coverage file:///home/travis/build/npmdoc/node-npmdoc-svg2ttf/tmp/build/coverage.html/in\</tspan>
<tspan x="10" y="1914">dex.html</tspan>
<tspan x="10" y="1930">merging file:///home/travis/build/npmdoc/node-npmdoc-svg2ttf/tmp/build/test-report.json to test-\</tspan>
<tspan x="10" y="1946">report</tspan>
<tspan x="10" y="1962"></tspan>
<tspan x="10" y="1978">-------------------------------------------------------</tspan>
<tspan x="10" y="1994">| test-report - buildNpmdoc - node - linux v6.10.2 - 2017-04-07T13:16:00.958Z</tspan>
<tspan x="10" y="2010">|   35910 ms            0 failed        6 passed      |</tspan>
<tspan x="10" y="2026">-------------------------------------------------------</tspan>
<tspan x="10" y="2042"></tspan>
<tspan x="10" y="2058">created test-report file:///home/travis/build/npmdoc/node-npmdoc-svg2ttf/tmp/build/test-report.h\</tspan>
<tspan x="10" y="2074">tml</tspan>
<tspan x="10" y="2090"></tspan>
<tspan x="10" y="2106"></tspan>
<tspan x="10" y="2122">npmTest - 0 failed tests</tspan>
<tspan x="10" y="2138"></tspan>
<tspan x="10" y="2154"></tspan>
<tspan x="10" y="2170">[MODE_BUILD=npmTest] - 2017-04-07T13:16:39Z - EXIT_CODE - 0</tspan>
</text>
</svg>
